<svg width="216" height="28" viewBox="0 0 216 28" fill="none" xmlns="http://www.w3.org/2000/svg">
<path d="M28.5406 0.0283508H21.7219V27.8423H28.5406V0.0283508Z" fill="#066582"/>
<path d="M6.81902 0.0284119H0.000244141V27.8424H6.81902V0.0284119Z" fill="#066582"/>
<path d="M20.5142 21.0425H3.05176e-05V27.8423H20.5142V21.0425Z" fill="#066582"/>
<path d="M6.81878 21.0425H0V27.8423H6.81878V21.0425Z" fill="#066582"/>
<path d="M36.9022 0.0279541V6.81711H30.0835C30.0835 3.06757 33.1316 0.0279541 36.8916 0.0279541H36.9022Z" fill="#066582"/>
<path d="M30.0835 6.81711V15.9245V17.3295V27.8426H36.9022V17.3295V15.9245V6.81711H30.0835Z" fill="#066582"/>
<path d="M54.2447 16.8204C54.085 11.335 51.3532 6.48253 47.2138 3.42328C44.3302 5.55537 40.7602 6.81711 36.9023 6.81711V6.82768C42.7088 6.82768 47.4335 11.5391 47.4335 17.3295V27.8426H54.2523V16.8204H54.2447Z" fill="#066582"/>
<path d="M47.2138 3.42329C44.3302 5.55538 40.7602 6.81711 36.9023 6.81711V0.0279541C40.7602 0.0279541 44.3302 1.28968 47.2138 3.42329Z" fill="#066582"/>
<path d="M105.555 21.0452H91.8599V27.845H105.555V21.0452Z" fill="#066582"/>
<path d="M91.8598 27.8449H85.0411V17.3352C85.0411 13.5798 88.0939 10.5355 91.8598 10.5355L91.8598 27.8449Z" fill="#066582"/>
<path d="M105.555 0.0256958H91.8598V6.82543H105.555V0.0256958Z" fill="#066582"/>
<path d="M101.651 10.5381H91.8599V17.3378H101.651V10.5381Z" fill="#066582"/>
<path d="M91.8601 0.0256653H85.0413V10.5354H91.8601V0.0256653Z" fill="#066582"/>
<path d="M114.157 17.5535H107.339V27.8419H114.157V17.5535Z" fill="#066582"/>
<path d="M114.157 0.0288086H107.339V10.8717H114.157V0.0288086Z" fill="#066582"/>
<path d="M114.583 10.8716H114.157V17.5535H114.583V10.8716Z" fill="#066582"/>
<path d="M126.748 16.1811C129.051 14.6888 130.573 12.1323 130.573 9.23437V8.74616C130.573 4.15403 126.752 0.0287476 122.056 0.0287476H114.157V7.13078H122.056C122.967 7.13078 123.708 7.85544 123.708 8.74616V9.23437C123.708 10.1251 122.967 10.8498 122.056 10.8498H114.157V10.8768C118.015 10.8768 121.585 12.114 124.469 14.2061C125.286 14.7987 126.049 15.4601 126.748 16.1811Z" fill="#066582"/>
<path d="M114.157 17.5625H114.775C114.571 17.5509 114.365 17.5443 114.157 17.5443V17.5625Z" fill="#066582"/>
<path d="M126.748 16.1811C125.401 17.0535 123.788 17.5625 122.056 17.5625H114.775C120.295 17.8764 124.689 22.367 124.689 27.8419H131.507C131.507 23.3288 129.696 19.2226 126.748 16.1811Z" fill="#066582"/>
<path d="M126.748 16.1811C126.049 15.4601 125.286 14.7987 124.469 14.2061C121.585 12.114 118.015 10.8768 114.157 10.8768V17.5443C114.365 17.5443 114.571 17.5509 114.775 17.5625H122.056C123.788 17.5625 125.401 17.0535 126.748 16.1811Z" fill="#066582"/>
<path d="M114.157 10.8775V17.5347H107.339C107.339 13.858 110.387 10.8775 114.147 10.8775H114.157Z" fill="#066582"/>
<path d="M72.2512 0V9.06072C72.2512 10.8453 71.4113 12.6626 69.9405 13.7091C69.3485 14.1303 68.8515 14.2791 68.0846 14.8434C67.4811 15.2875 66.9637 16.4014 66.8841 17.2349C66.8306 17.796 66.818 21.282 66.8578 21.6888C66.9149 21.7203 68.3916 21.7789 69.1786 21.6173C69.9421 21.4605 70.6412 21.1808 71.3766 20.9363C72.0599 20.6525 72.709 20.3086 73.3228 19.8973C73.4354 19.8219 73.5466 19.7446 73.6565 19.6654C75.7571 18.1511 77.3341 15.9718 78.1884 13.5373C78.6923 12.1014 78.9451 10.5816 78.9451 9.06072V0H72.2512Z" fill="#21ADD8"/>
<path d="M61.7211 9.06072V0H55.0272V9.06072C55.0272 12.4799 56.2898 15.5897 58.3427 17.8857C58.5448 14.6607 59.7964 11.7366 61.737 9.49677C61.7266 9.35235 61.7211 9.20694 61.7211 9.06072Z" fill="#21ADD8"/>
<path d="M79.8925 9.98492C79.6903 13.2099 78.4387 16.1341 76.4981 18.3739C76.5085 18.5183 76.514 18.6637 76.514 18.8099V27.8706H83.2079V18.8099C83.2079 15.3908 81.9453 12.281 79.8925 9.98492Z" fill="#21ADD8"/>
<path d="M71.2489 6.0275C71.2405 6.0275 71.2573 6.0275 71.2489 6.0275C67.9314 6.0275 64.9254 7.47928 62.7568 9.81918C60.615 12.1302 59.29 15.3076 59.29 18.8099V27.8706H65.9839V22.7766C65.9839 22.7766 65.9839 18.8101 65.9839 18.8099C65.9839 17.2699 66.1637 15.5171 67.3674 14.5077C68.4382 13.6097 69.8571 13.2371 70.5582 11.9567C71.8039 9.73634 71.2489 6.0275 71.2489 6.0275Z" fill="#21ADD8"/>
<path d="M202.21 0.0270081H146.206C138.59 0.0270081 132.416 6.25396 132.416 13.9353C132.416 21.6166 138.59 27.8436 146.206 27.8436H202.21C209.826 27.8436 216 21.6167 216 13.9353C216 6.25399 209.826 0.0270081 202.21 0.0270081ZM160.735 8.97722H155.469V24.0069H149.25V8.97722H144.04V4.00501H160.735V8.97722ZM186.253 24.0069H180.063V14.0342L177.009 24.0069H171.687L168.634 14.0342V24.0069H162.416V4.00501H170.035L174.404 16.0118L178.662 4.00501H186.253V24.0069ZM203.48 21.1112C202.882 22.0814 202.013 22.8393 200.875 23.3853C199.735 23.9319 198.382 24.2047 196.813 24.2047C194.441 24.2047 192.485 23.6445 190.945 22.5237C189.404 21.4034 188.568 19.7599 188.438 17.5939H195.048C195.141 18.7429 195.646 19.3172 196.561 19.3172C196.897 19.3172 197.181 19.2373 197.415 19.0771C197.648 18.9172 197.765 18.6674 197.765 18.3284C197.765 17.8579 197.513 17.4764 197.009 17.1842C196.505 16.8924 195.72 16.5582 194.656 16.1813C193.386 15.7293 192.336 15.287 191.505 14.8535C190.674 14.4205 189.959 13.7897 189.362 12.9607C188.764 12.1321 188.475 11.0678 188.494 9.76826C188.494 8.46871 188.825 7.36252 189.488 6.44874C190.151 5.53542 191.057 4.8433 192.205 4.37226C193.354 3.90175 194.646 3.66598 196.085 3.66598C198.512 3.66598 200.44 4.23101 201.869 5.36108C203.298 6.49115 204.049 8.08292 204.124 10.1355H197.429C197.41 9.57048 197.27 9.16574 197.009 8.92069C196.747 8.67619 196.43 8.55345 196.057 8.55345C195.795 8.55345 195.58 8.6431 195.412 8.82185C195.244 9.00112 195.16 9.25048 195.16 9.57048C195.16 10.0226 195.408 10.3947 195.903 10.6864C196.397 10.9787 197.186 11.3318 198.27 11.7459C199.52 12.2168 200.552 12.6688 201.365 13.102C202.177 13.5354 202.882 14.1379 203.48 14.91C204.077 15.6825 204.376 16.6523 204.376 17.8199C204.376 19.0444 204.077 20.1413 203.48 21.1112Z" fill="#066582"/>
</svg>
